:SAMPLES-PER-SECOND 30
:FULLY-SPECIFIED
:DEGREES
231
root  12.0085 36.7446 -17.8815 16.8704 -85.0606 -22.4045
RightUpLeg  -10.5893 -10.3513 10.6343
RightLeg  42.3185 -15.2079 -14.6302
RightFoot  -23.3026 0.126449 2.73726
RightToes  1.16414e-010 0 -3.6325e-017
Spine  29.9591 -3.20015 -7.53714
Spine1  2.22031 -4.06559 -7.7283
HEad  -30.8349 18.2171 3.70227
LeftShoulder1  -0.0427128 4.3882 4.14188
LeftArm  -63.2468 -24.5602 -0.571317
LeftForeArm  -96.3258 -5.27323 9.53277
LeftHand  0.192305 -0.234759 -3.97517
RightShoulder  2.03784 4.01295 20.801
RightArm  50.3871 -29.4982 59.8313
RightForeArm  33.3741 18.6039 8.15607
RightHand  -0.0652341 -7.20679 1.52055
LeftUpLeg  -39.1618 17.4427 6.20538
LeftLeg  55.0843 9.33534 14.5495
LeftFoot  6.71758 1.39983 -9.07333
LeftToes  7.09373e-011 9.9627e-011 8.96859e-012
232
root  11.8502 37.4341 -16.3233 6.88908 -85.6138 -11.3798
RightUpLeg  -9.59918 -8.19628 6.70452
RightLeg  39.0675 -15.2148 -13.1234
RightFoot  -20.7781 0.290823 5.20283
RightToes  1.16414e-010 0 -3.6325e-017
Spine  28.0562 -2.889 -7.46018
Spine1  1.60309 -3.70066 -6.64938
HEad  -29.2937 17.4446 3.44885
LeftShoulder1  -0.038148 4.16709 3.12558
LeftArm  -60.6415 -23 -2.0023
LeftForeArm  -96.1804 -5.50817 8.76807
LeftHand  0.178575 0.178158 -4.03912
RightShoulder  2.01898 3.9716 20.6915
RightArm  54.1267 -30.563 60.7248
RightForeArm  29.8844 20.8057 5.82955
RightHand  -0.0667915 -6.90215 2.00074
LeftUpLeg  -34.2254 15.0289 12.5034
LeftLeg  48.3649 10.7768 13.1328
LeftFoot  9.76488 1.24659 -6.99993
LeftToes  7.09373e-011 9.9627e-011 8.96859e-012
233
root  11.6117 37.9233 -14.6395 -1.20093 -85.9347 -2.05911
RightUpLeg  -9.13134 -5.70077 3.12887
RightLeg  36.8194 -15.1667 -12.1203
RightFoot  -18.794 0.326084 6.93776
RightToes  1.16414e-010 0 -3.6325e-017
Spine  25.861 -3.0779 -6.63969
Spine1  0.867999 -3.6184 -5.95197
HEad  -27.5856 17.1613 3.03455
LeftShoulder1  -0.0480714 4.23701 2.19445
LeftArm  -58.3004 -20.8779 -3.36291
LeftForeArm  -96.0094 -5.83324 8.15423
LeftHand  0.174022 0.551197 -4.29004
RightShoulder  2.00738 3.94335 20.6345
RightArm  55.4099 -31.2942 60.6382
RightForeArm  28.1228 22.3873 4.30034
RightHand  -0.0562802 -6.45915 1.70445
LeftUpLeg  -29.3008 11.404 17.9368
LeftLeg  41.0181 11.2018 10.6396
LeftFoot  14.8817 1.58205 -7.14541
LeftToes  7.09373e-011 9.9627e-011 8.96859e-012
234
root  11.3333 38.2446 -12.8449 -3.34465 -85.9728 1.37364
RightUpLeg  -8.87917 -3.95846 -0.0215428
RightLeg  34.6968 -15.6171 -11.5712
RightFoot  -16.5953 0.278543 8.56132
RightToes  1.16414e-010 0 -3.6325e-017
Spine  23.5861 -3.65458 -4.9625
Spine1  -0.121525 -3.76775 -5.54703
HEad  -25.4622 17.186 2.29578
LeftShoulder1  -0.0662037 4.41618 1.38034
LeftArm  -56.4856 -18.2063 -4.86097
LeftForeArm  -95.1512 -6.4771 7.6711
LeftHand  0.196481 0.125507 -4.38967
RightShoulder  2.00673 3.92276 20.7057
RightArm  54.2978 -31.9162 59.5464
RightForeArm  28.034 23.2609 3.73941
RightHand  -0.0407542 -5.89777 1.22399
LeftUpLeg  -24.8033 7.27255 22.3749
LeftLeg  33.7796 10.425 7.77678
LeftFoot  17.7171 1.92856 -7.86928
LeftToes  7.09373e-011 9.9627e-011 8.96859e-012
235
root  11.0656 38.4576 -11.0191 -6.42223 -86.1891 5.37512
RightUpLeg  -8.15116 -2.69112 -3.2891
RightLeg  32.1055 -16.1306 -10.8737
RightFoot  -14.468 0.205915 11.1261
RightToes  1.16414e-010 0 -3.6325e-017
Spine  21.6802 -3.92651 -3.7642
Spine1  -1.06917 -3.83099 -4.86274
HEad  -23.2705 17.2511 0.993506
LeftShoulder1  -0.0795784 4.49756 0.513731
LeftArm  -55.054 -15.0731 -6.36025
LeftForeArm  -94.2244 -7.32143 7.32144
LeftHand  0.205506 -0.451051 -4.06535
RightShoulder  1.9707 3.81333 20.6108
RightArm  52.1853 -32.1986 57.7469
RightForeArm  27.5852 23.39 3.72478
RightHand  -0.0323558 -5.60127 0.722529
LeftUpLeg  -20.3066 2.94711 25.3467
LeftLeg  27.1279 8.34078 4.9534
LeftFoot  16.8305 1.31346 -5.61612
LeftToes  7.09373e-011 9.9627e-011 8.96859e-012
236
root  10.8023 38.524 -9.14551 -12.7223 -86.6719 12.2098
RightUpLeg  -7.23229 -1.48523 -6.80491
RightLeg  29.9397 -16.1443 -10.0442
RightFoot  -12.9356 0.102006 13.4611
RightToes  1.16414e-010 0 -3.6325e-017
Spine  19.997 -3.79061 -3.16683
Spine1  -1.53154 -3.71116 -3.54454
HEad  -21.3384 17.1124 -0.611504
LeftShoulder1  -0.084392 4.45857 -0.419605
LeftArm  -53.7057 -11.8894 -7.66155
LeftForeArm  -94.1863 -7.99731 7.09232
LeftHand  0.178269 -0.306177 -3.6218
RightShoulder  1.8869 3.5874 20.2649
RightArm  48.993 -31.8958 55.6411
RightForeArm  25.9715 22.7692 4.07689
RightHand  -0.0295677 -5.38057 -0.105245
LeftUpLeg  -15.7968 -2.25552 26.8779
LeftLeg  22.1165 5.41027 2.73318
LeftFoot  15.3058 0.82473 -3.86244
LeftToes  7.09373e-011 9.9627e-011 8.96859e-012
237
root  10.5212 38.3625 -7.11435 -15.2828 -87.4238 15.4346
RightUpLeg  -7.01636 -1.15839 -10.3896
RightLeg  28.691 -15.2508 -9.08306
RightFoot  -11.7265 -0.0293613 14.7345
RightToes  1.16414e-010 0 -3.6325e-017
Spine  17.9235 -3.66565 -1.87346
Spine1  -1.46736 -3.47234 -2.27076
HEad  -19.5378 16.7431 -1.8845
LeftShoulder1  -0.0921847 4.48908 -1.00237
LeftArm  -52.4363 -8.93098 -9.03103
LeftForeArm  -94.8363 -8.39222 6.93908
LeftHand  0.147764 0.307098 -3.44976
RightShoulder  1.8071 3.34594 20.0243
RightArm  43.6538 -31.1877 53.2271
RightForeArm  24.5674 21.8042 4.77448
RightHand  -0.0319234 -4.54651 -1.09153
LeftUpLeg  -12.0146 -6.88484 27.3388
LeftLeg  19.9018 2.47799 1.30551
LeftFoot  13.5514 2.13762 -10.1145
LeftToes  7.09373e-011 9.9627e-011 8.96859e-012
238
root  10.2367 37.9991 -4.93318 -19.8818 -88.5121 20.7607
RightUpLeg  -7.08854 -2.4388 -14.2514
RightLeg  27.1881 -12.8292 -7.29829
RightFoot  -10.5147 -0.197223 16.963
RightToes  1.16414e-010 0 -3.6325e-017
Spine  15.7338 -3.58807 0.102808
Spine1  -1.13218 -3.12295 -1.81003
HEad  -17.8606 16.2253 -2.54358
LeftShoulder1  -0.114382 4.73097 -0.973089
LeftArm  -51.5627 -6.22707 -10.7995
LeftForeArm  -95.2129 -8.622 6.87195
LeftHand  0.140271 0.504602 -3.43623
RightShoulder  1.75225 3.11764 20.1145
RightArm  36.9071 -30.4771 50.2024
RightForeArm  22.9998 21.4425 5.03577
RightHand  -0.0566672 -3.21071 -2.13676
LeftUpLeg  -8.95768 -7.87757 26.5803
LeftLeg  19.9779 0.997144 0.726092
LeftFoot  8.33967 3.851 -22.6062
LeftToes  7.09373e-011 9.9627e-011 8.96859e-012
239
root  9.98623 37.6256 -2.79068 -56.9892 -89.1233 57.755
RightUpLeg  -5.9026 -3.54303 -18.742
RightLeg  24.4438 -10.0269 -5.16972
RightFoot  -8.821 -0.531776 20.8083
RightToes  1.16414e-010 0 -3.6325e-017
Spine  14.6193 -3.16766 0.45576
Spine1  -0.58544 -2.81568 -1.37426
HEad  -16.8094 15.5397 -2.97477
LeftShoulder1  -0.142106 5.01891 -1.01077
LeftArm  -50.9998 -3.92726 -12.4891
LeftForeArm  -95.2423 -8.62009 6.90165
LeftHand  0.141997 0.198149 -3.23208
RightShoulder  1.6557 2.74112 20.1687
RightArm  29.1434 -29.9287 46.7704
RightForeArm  20.0886 22.5592 4.43263
RightHand  -0.110101 -2.24103 -3.67851
LeftUpLeg  -5.959 -5.60079 23.9018
LeftLeg  20.7329 1.07235 0.776885
LeftFoot  -1.11066 2.94545 -31.5568
LeftToes  7.09373e-011 9.9627e-011 8.96859e-012
240
root  9.79227 37.4497 -0.830444 -97.5182 -87.966 97.234
RightUpLeg  -3.30142 -1.69524 -23.319
RightLeg  20.9725 -11.185 -4.8162
RightFoot  -5.35863 -1.18063 21.904
RightToes  1.16414e-010 0 -3.6325e-017
Spine  14.7401 -2.37479 -2.0773
Spine1  0.237951 -2.88697 0.508059
HEad  -16.6349 14.6591 -3.58818
LeftShoulder1  -0.152502 4.9992 -1.99223
LeftArm  -49.8218 -2.06883 -13.2621
LeftForeArm  -95.5133 -8.33778 6.75799
LeftHand  0.126578 0.251943 -2.91301
RightShoulder  1.47279 2.13254 19.76
RightArm  17.9974 -29.6371 43.8523
RightForeArm  18.3847 25.3476 4.39691
RightHand  -0.175941 -1.98949 -5.75685
LeftUpLeg  -3.5177 -2.90773 19.3887
LeftLeg  21.3455 0.847118 0.700307
LeftFoot  -10.1854 0.418666 -30.5736
LeftToes  7.09373e-011 9.9627e-011 8.96859e-012
241
root  9.62729 37.5738 0.934015 -89.7946 -86.6919 88.9533
RightUpLeg  -1.02592 1.17309 -26.0711
RightLeg  17.3601 -17.8693 -6.67329
RightFoot  0.400063 -1.66599 16.5011
RightToes  1.16414e-010 0 -3.6325e-017
Spine  14.6143 -1.74801 -4.90537
Spine1  1.12311 -3.24764 3.19898
HEad  -16.7698 13.7164 -4.1416
LeftShoulder1  -0.121531 4.56024 -3.45325
LeftArm  -47.1697 -0.0449979 -13.4613
LeftForeArm  -95.0046 -8.38082 5.86678
LeftHand  0.107243 0.950781 -2.99594
RightShoulder  1.28419 1.52178 19.1552
RightArm  6.20602 -29.982 42.2115
RightForeArm  18.1897 29.6387 5.44589
RightHand  -0.236519 -2.26002 -8.47979
LeftUpLeg  -2.52118 -1.57655 14.7254
LeftLeg  21.5734 1.07031 0.793374
LeftFoot  -14.1661 -0.552077 -24.6004
LeftToes  7.09373e-011 9.9627e-011 8.96859e-012
242
root  9.42221 38.0265 2.41175 -91.997 -86.3764 92.0015
RightUpLeg  -0.679808 -1.98552 -25.8482
RightLeg  13.9004 -22.3162 -8.39443
RightFoot  5.43312 -1.22674 8.37765
RightToes  1.16414e-010 0 -3.6325e-017
Spine  13.2684 -1.55948 -5.37642
Spine1  1.65226 -3.25199 4.17401
HEad  -16.6579 12.9737 -4.15572
LeftShoulder1  -0.0631091 4.01987 -4.16941
LeftArm  -43.3433 2.95033 -14.5057
LeftForeArm  -90.9953 -9.79073 3.92625
LeftHand  0.129155 1.18673 -3.78533
RightShoulder  1.19327 1.21698 18.861
RightArm  -0.597121 -30.9146 41.4452
RightForeArm  18.2665 34.4773 6.64866
RightHand  -0.299617 -2.64268 -12.2562
LeftUpLeg  -2.31804 -0.666307 11.6283
LeftLeg  20.4563 1.98477 1.26019
LeftFoot  -13.649 -0.358104 -21.5476
LeftToes  7.09373e-011 9.9627e-011 8.96859e-012
243
root  9.17893 38.794 3.54017 -115.023 -86.5944 116.447
RightUpLeg  -2.03293 -7.60952 -23.1569
RightLeg  12.2149 -21.1329 -7.48141
RightFoot  5.83119 -0.820644 5.71825
RightToes  1.16414e-010 0 -3.6325e-017
Spine  11.6348 -1.39225 -3.67358
Spine1  1.63686 -2.55 2.87531
HEad  -16.4861 12.685 -3.71862
LeftShoulder1  -0.0320437 3.76572 -4.25368
LeftArm  -39.922 7.01109 -16.9745
LeftForeArm  -82.3016 -12.8559 1.1884
LeftHand  0.22228 0.078389 -4.88767
RightShoulder  1.1926 1.24376 18.6894
RightArm  -1.90753 -31.7495 40.7096
RightForeArm  20.0481 38.566 7.6798
RightHand  -0.355292 -2.75286 -15.3502
LeftUpLeg  -1.82456 2.21947 10.3161
LeftLeg  17.6756 1.68587 1.65003
LeftFoot  -10.8006 0.172532 -21.9016
LeftToes  7.09373e-011 9.9627e-011 8.96859e-012
244
root  9.0032 39.6886 4.37656 -147.586 -85.9394 149.947
RightUpLeg  -3.97513 -8.49816 -18.6077
RightLeg  14.6118 -16.0829 -5.36816
RightFoot  3.23955 -1.20828 9.61821
RightToes  1.16414e-010 0 -3.6325e-017
Spine  11.1928 -0.968614 -1.8462
Spine1  1.00964 -1.59628 1.27672
HEad  -16.496 12.8469 -3.29004
LeftShoulder1  -0.0365247 3.78698 -4.98272
LeftArm  -38.8256 11.6053 -20.244
LeftForeArm  -71.4294 -16.8241 -2.17368
LeftHand  0.373528 -1.5083 -6.16342
RightShoulder  1.20531 1.39684 18.1157
RightArm  -0.65262 -32.0929 40.1874
RightForeArm  22.7943 41.4048 8.37627
RightHand  -0.362372 -2.74417 -15.5581
LeftUpLeg  -1.77129 5.39791 9.85312
LeftLeg  15.8541 1.21274 1.73915
LeftFoot  -5.42583 1.18128 -22.0914
LeftToes  7.09373e-011 9.9627e-011 8.96859e-012
